<svg width="150" height="235" viewBox="0 0 150 235" fill="none" xmlns="http://www.w3.org/2000/svg">
<path fill-rule="evenodd" clip-rule="evenodd" d="M21.3352 233.516C20.4846 234.121 19.351 234.125 18.2633 234.125C13.8308 234.125 10.2322 230.526 10.2322 226.094C10.2322 224.989 10.4558 223.936 10.8602 222.978L12.5368 220.549L69.016 131.994C71.2177 133.133 73.7163 133.777 76.3641 133.777C78.6296 133.777 80.7861 133.306 82.7405 132.456C88.4179 129.989 92.3923 124.329 92.3923 117.748C92.3923 112.636 89.9935 108.079 86.2609 105.143C92.2671 95.1693 103.201 88.4918 115.682 88.4918C134.623 88.4918 150 103.869 150 122.81C150 133.407 145.186 142.889 137.628 149.186C137.628 149.186 41.2292 219.359 21.3351 233.515L21.3352 233.516Z"/>
<path fill-rule="evenodd" clip-rule="evenodd" d="M128.665 0.609484C129.515 0.00426484 130.649 0 131.737 0C136.169 0 139.768 3.59862 139.768 8.03108C139.768 9.13593 139.544 10.189 139.14 11.1474L137.463 13.5761L80.984 102.131C78.7823 100.992 76.2837 100.348 73.6359 100.348C71.3704 100.348 69.2139 100.819 67.2595 101.669C61.5821 104.136 57.6077 109.796 57.6077 116.377C57.6077 121.489 60.0065 126.046 63.7391 128.982C57.7329 138.956 46.7991 145.633 34.318 145.633C15.3773 145.633 0 130.256 0 111.315C0 100.718 4.81367 91.2359 12.3718 84.9386C12.3718 84.9386 108.771 14.766 128.665 0.609613L128.665 0.609484Z"/>
</svg>
